<svg width="598" height="771" xmlns="http://www.w3.org/2000/svg" xmlns:xlink="http://www.w3.org/1999/xlink">
 <defs>
  <linearGradient y2="0" x2="0.499926" y1="1" x1="0.499926" id="64b2f0c3-b8c6-416b-b34b-607e0141c58a">
   <stop stop-opacity="0.25" stop-color="gray" offset="0"/>
   <stop stop-opacity="0.12" stop-color="gray" offset="0.54"/>
   <stop stop-opacity="0.1" stop-color="gray" offset="1"/>
  </linearGradient>
  <linearGradient xlink:href="#64b2f0c3-b8c6-416b-b34b-607e0141c58a" y2="407.94" x2="301.36" y1="657.58" x1="301.36" id="fd25eb43-3afe-4a22-ac88-8c5d19f6538d"/>
  <linearGradient xlink:href="#64b2f0c3-b8c6-416b-b34b-607e0141c58a" y2="314.44" x2="300.76" y1="547.78" x1="300.76" id="51278309-2317-4b46-9654-9b647c1f3ddc"/>
  <linearGradient xlink:href="#64b2f0c3-b8c6-416b-b34b-607e0141c58a" y2="229.65" x2="299.55" y1="437.99" x1="299.55" id="21728ec6-81ec-47a9-bb13-976181664cc7"/>
  <linearGradient xlink:href="#64b2f0c3-b8c6-416b-b34b-607e0141c58a" y2="154.46" x2="299.55" y1="336.63" x1="299.55" id="710714d6-afff-45b6-86fc-e6cf09bb492b"/>
  <linearGradient xlink:href="#64b2f0c3-b8c6-416b-b34b-607e0141c58a" y2="76.01" x2="300.76" y1="238.9" x1="300.76" id="feca075f-a06b-4532-9429-3e58da5640dc"/>
  <linearGradient xlink:href="#64b2f0c3-b8c6-416b-b34b-607e0141c58a" y2="64.5" x2="601.76" y1="189.91" x1="601.76" id="bcc8da3a-a8ff-4d7e-8337-e53162e1db7f"/>
  <linearGradient xlink:href="#64b2f0c3-b8c6-416b-b34b-607e0141c58a" y2="221.37" x2="408" y1="285.37" x1="408" id="7315fb14-0d63-4903-85a6-ba21ce163236"/>
  <linearGradient xlink:href="#64b2f0c3-b8c6-416b-b34b-607e0141c58a" gradientTransform="translate(118.75 -114.94) rotate(33.39)" y2="13.98" x2="730.75" y1="59.19" x1="730.75" id="2dff063f-5ae1-4ed3-afc3-5946cb216358"/>
  <linearGradient xlink:href="#64b2f0c3-b8c6-416b-b34b-607e0141c58a" y2="220.37" x2="192" y1="284.37" x1="192" id="821f44f1-a638-41d3-86c4-6fa55275ab1a"/>
  <linearGradient xlink:href="#64b2f0c3-b8c6-416b-b34b-607e0141c58a" y2="300.79" x2="492.15" y1="335.49" x1="492.15" id="ebbf8c66-3537-49f9-9828-9befcb118a16"/>
  <linearGradient xlink:href="#64b2f0c3-b8c6-416b-b34b-607e0141c58a" y2="418.37" x2="489" y1="482.37" x1="489" id="8c5c9a82-7902-4e4b-aeb6-38c841f4a599"/>
  <linearGradient xlink:href="#64b2f0c3-b8c6-416b-b34b-607e0141c58a" gradientTransform="translate(-28.59 271.29) rotate(-15.31)" y2="430.23" x2="723.24" y1="473.87" x1="723.24" id="6572dd79-6866-4c62-adcd-5a75d6887bf1"/>
  <linearGradient xlink:href="#64b2f0c3-b8c6-416b-b34b-607e0141c58a" y2="321.37" x2="154" y1="385.37" x1="154" id="50a6bcbf-71f6-4f9f-9c70-5a56bbad7c5b"/>
  <linearGradient xlink:href="#64b2f0c3-b8c6-416b-b34b-607e0141c58a" gradientTransform="translate(-7.76 38.03) rotate(-2.38)" y2="379" x2="445.85" y1="420.96" x1="445.85" id="99ef0e19-a61d-4b08-8dcf-bd6568c02f1e"/>
  <linearGradient xlink:href="#64b2f0c3-b8c6-416b-b34b-607e0141c58a" y2="319.37" x2="448" y1="383.37" x1="448" id="12a5d3f8-5393-40ab-8b3e-aa3812c07f5a"/>
  <linearGradient xlink:href="#64b2f0c3-b8c6-416b-b34b-607e0141c58a" y2="417.25" x2="773.16" y1="417.25" x1="729" id="5cbae585-c536-47b3-aa98-54e5047313c1"/>
  <linearGradient xlink:href="#64b2f0c3-b8c6-416b-b34b-607e0141c58a" y2="645.37" x2="32" y1="709.37" x1="32" id="46765641-5247-48a6-b74b-53d6b54dbb16"/>
  <linearGradient xlink:href="#64b2f0c3-b8c6-416b-b34b-607e0141c58a" y2="728.79" x2="334.15" y1="763.49" x1="334.15" id="794c57a5-8e00-4894-82bf-1880783379ee"/>
  <linearGradient xlink:href="#64b2f0c3-b8c6-416b-b34b-607e0141c58a" y2="538.37" x2="534" y1="602.37" x1="534" id="d73e8d8b-f5de-4a7b-bc91-c12c41a143e7"/>
  <linearGradient xlink:href="#64b2f0c3-b8c6-416b-b34b-607e0141c58a" gradientTransform="translate(-7.76 38.03) rotate(-2.38)" y2="611.59" x2="816.52" y1="653.54" x1="816.52" id="a287f7cf-b981-4b46-a7a5-e3fe6ce30998"/>
  <linearGradient xlink:href="#64b2f0c3-b8c6-416b-b34b-607e0141c58a" y2="422.37" x2="113" y1="486.37" x1="113" id="e65766e7-ab8c-4f5b-bfd3-b9a7c5095d11"/>
  <linearGradient xlink:href="#64b2f0c3-b8c6-416b-b34b-607e0141c58a" gradientTransform="translate(118.75 -114.94) rotate(33.39)" y2="344.16" x2="595.06" y1="389.36" x1="595.06" id="e76b2440-b096-46f5-bb61-246e4e471e19"/>
  <linearGradient xlink:href="#64b2f0c3-b8c6-416b-b34b-607e0141c58a" y2="537.37" x2="64" y1="601.37" x1="64" id="668125a2-a642-4673-9f02-0f1ac728a50a"/>
  <linearGradient xlink:href="#64b2f0c3-b8c6-416b-b34b-607e0141c58a" y2="635.25" x2="389.16" y1="635.25" x1="345" id="7fadd4d4-04c6-494c-a840-c0524248c3dc"/>
  <linearGradient xlink:href="#64b2f0c3-b8c6-416b-b34b-607e0141c58a" y2="645.37" x2="566" y1="709.37" x1="566" id="74b358ee-2808-4d3e-a206-0b82a517d11a"/>
  <linearGradient xlink:href="#64b2f0c3-b8c6-416b-b34b-607e0141c58a" gradientTransform="translate(-28.59 271.29) rotate(-15.31)" y2="670.46" x2="737.31" y1="714.1" x1="737.31" id="823f05c8-15fb-4319-95da-2867774c7f73"/>
 </defs>
 <title>social_tree_1</title>
 <g>
  <title>background</title>
  <rect fill="none" id="canvas_background" height="402" width="582" y="-1" x="-1"/>
 </g>
 <g>
  <title>Layer 1</title>
  <rect id="svg_1" fill="url(#64b2f0c3-b8c6-416b-b34b-607e0141c58a)" height="201.5" width="67.57" y="569.5" x="265.77"/>
  <rect id="svg_2" fill="#795548" height="197.88" width="57.92" y="569.5" x="270.59"/>
  <polygon id="svg_3" fill="url(#fd25eb43-3afe-4a22-ac88-8c5d19f6538d)" points="301.36 407.94 29.28 657.58 573.44 657.58 301.36 407.94"/>
  <polygon id="svg_4" fill="#c7edd9" points="301.36 414.49 40.14 650.9 562.59 650.9 301.36 414.49"/>
  <polygon id="svg_5" fill="url(#51278309-2317-4b46-9654-9b647c1f3ddc)" points="300.76 314.44 64.27 547.78 537.25 547.78 300.76 314.44"/>
  <polygon id="svg_6" fill="#c7edd9" points="300.76 320.79 73.92 544.61 527.59 544.61 300.76 320.79"/>
  <polygon id="svg_7" fill="url(#21728ec6-81ec-47a9-bb13-976181664cc7)" points="299.55 229.65 117.36 437.99 481.74 437.99 299.55 229.65"/>
  <polygon id="svg_8" fill="#c7edd9" points="299.55 239.16 125.81 433.23 473.3 433.23 299.55 239.16"/>
  <polygon id="svg_9" fill="url(#710714d6-afff-45b6-86fc-e6cf09bb492b)" points="299.55 154.46 163.21 336.63 435.89 336.63 299.55 154.46"/>
  <polygon id="svg_10" fill="#c7edd9" points="300.54998779296875,159.83999633789062 170.24000549316406,333.95001220703125 430.8599853515625,333.95001220703125 300.54998779296875,159.83999633789062 "/>
  <polygon id="svg_11" fill="url(#feca075f-a06b-4532-9429-3e58da5640dc)" points="300.76 76.01 206.72 238.9 394.8 238.9 300.76 76.01"/>
  <polygon id="svg_12" fill="#c7edd9" points="300.76 80.84 210.9 236.49 390.62 236.49 300.76 80.84"/>
  <path id="svg_13" fill="url(#bcc8da3a-a8ff-4d7e-8337-e53162e1db7f)" d="m300.76,0c14.78,51.26 14.78,51.26 65.93,47.9c-38,29.64 -38,29.64 -25.18,77.51c-42.39,-42.94 -42.39,-42.94 -81.5,0c17.75,-47.87 17.75,-51.16 -25.18,-77.51c46.17,0.07 49.5,-1.57 65.93,-47.9z"/>
  <path id="svg_14" fill="#6c63ff" d="m300.76,5.33c13.53,46.9 13.53,46.9 60.33,43.83c-34.78,27.12 -34.78,27.12 -23,70.92c-38.79,-39.29 -38.79,-39.29 -74.57,0c16.24,-43.8 16.24,-46.81 -23,-70.92c42.2,0.06 45.21,-1.44 60.24,-43.83z"/>
  <circle id="svg_15" fill="url(#7315fb14-0d63-4903-85a6-ba21ce163236)" r="32" cy="253.37" cx="408"/>
  <circle id="svg_16" fill="#3b5998" r="28" cy="253.37" cx="408"/>
  <path id="svg_17" fill="url(#2dff063f-5ae1-4ed3-afc3-5946cb216358)" d="m410,241.8l0.06,4.34l7,-0.1l-0.76,7.83l-6.08,0.09l0.31,21.72l-9.56,0.14l-0.31,-21.72l-4.34,0.06l-0.11,-7.82l4.34,-0.06l-0.06,-4.34s-0.9,-8.24 6.81,-9.66l9.56,-0.14l0.1,7l-4.34,0.06a2.56,2.56 0 0 0 -2.62,2.6z"/>
  <path id="svg_18" fill="#fff" d="m412.86,240.58l0.06,4.34l7,-0.1l-0.76,7.83l-6.08,0.09l0.31,21.72l-9.56,0.14l-0.31,-21.72l-4.34,0.06l-0.11,-7.82l4.34,-0.06l-0.06,-4.34s-0.9,-8.24 6.81,-9.66l9.56,-0.14l0.1,7l-4.34,0.06a2.56,2.56 0 0 0 -2.62,2.6z"/>
  <circle id="svg_19" fill="url(#821f44f1-a638-41d3-86c4-6fa55275ab1a)" r="32" cy="252.37" cx="192"/>
  <circle id="svg_20" fill="#00aced" r="28" cy="252.37" cx="192"/>
  <path id="svg_21" fill="url(#ebbf8c66-3537-49f9-9828-9befcb118a16)" d="m208.08,242.22l4.23,-0.85s-3.55,4 -4.23,4.23l0,0a17,17 0 0 0 0,2.54c-8.08,34.86 -38.08,19.46 -38.08,19.46c10.92,0.25 11.85,-4.23 11.85,-4.23c-6.35,-0.93 -7.62,-5.08 -7.62,-5.08a2.61,2.61 0 0 0 3.38,-0.85c-6.85,-1.78 -5.92,-8.46 -5.92,-8.46a8.8,8.8 0 0 0 4.15,1.61c-0.76,-0.93 -7.19,-8.63 -3.3,-12.61c0,0 4.74,8.46 17.18,9.22l0.85,-0.17a6.64,6.64 0 0 1 -0.17,-1.86a8.88,8.88 0 0 1 8.88,-8.88c5.92,0 7.19,3.38 7.19,3.38l4.23,-2.54c-0.08,0.01 -0.51,4.24 -2.62,5.09z"/>
  <path id="svg_22" fill="#fff" d="m209.77,239.68l4.23,-0.85s-3.55,4 -4.23,4.23l0,0a17,17 0 0 0 0,2.54c-8.12,34.86 -38.08,19.46 -38.08,19.46c10.92,0.25 11.85,-4.23 11.85,-4.23c-6.35,-0.93 -7.62,-5.08 -7.62,-5.08a2.61,2.61 0 0 0 3.38,-0.85c-6.85,-1.78 -5.92,-8.46 -5.92,-8.46a8.8,8.8 0 0 0 4.15,1.61c-0.76,-0.93 -7.19,-8.63 -3.3,-12.61c0,0 4.74,8.46 17.18,9.22l0.85,-0.17a6.64,6.64 0 0 1 -0.17,-1.86a8.88,8.88 0 0 1 8.88,-8.88c5.92,0 7.19,3.38 7.19,3.38l4.23,-2.54c-0.08,0.01 -0.51,4.24 -2.62,5.09z"/>
  <circle id="svg_23" fill="url(#8c5c9a82-7902-4e4b-aeb6-38c841f4a599)" r="32" cy="450.37" cx="489"/>
  <circle id="svg_24" fill="#0077b5" r="28" cy="450.37" cx="489"/>
  <path id="svg_25" fill="url(#6572dd79-6866-4c62-adcd-5a75d6887bf1)" d="m500.63,468.63l0.24,-14.83s-0.78,-3.12 -3.73,-3s-3.94,0.54 -5.33,2.11l-0.26,15.59l-7.57,-0.12l0.39,-23.45l7.57,0.12l-0.06,3.48s2.58,-4.8 7.64,-4.34c4.69,0.38 8.12,3.31 8.77,9.45l0.15,0l-0.25,15.13l-7.56,-0.14zm-17.73,-26.76a4.54,4.54 0 1 1 4.61,-4.46a4.55,4.55 0 0 1 -12.17,4.32l7.56,0.14zm3.35,26.54l-7.57,-0.12l0.39,-23.45l7.57,0.12l-0.39,23.45z"/>
  <path id="svg_26" fill="#fff" d="m501.49,466.04l0.24,-14.83s-0.78,-3.12 -3.73,-3s-3.94,0.54 -5.33,2.11l-0.26,15.59l-7.57,-0.12l0.39,-23.45l7.57,0.12l-0.06,3.48s2.58,-4.8 7.64,-4.34c4.69,0.38 8.12,3.31 8.77,9.45l0.15,0l-0.25,15.13l-7.56,-0.14zm-17.73,-26.76a4.54,4.54 0 1 1 4.61,-4.46a4.55,4.55 0 0 1 -12.17,4.32l7.56,0.14zm3.35,26.54l-7.57,-0.12l0.39,-23.45l7.57,0.12l-0.39,23.45z"/>
  <circle id="svg_27" fill="url(#50a6bcbf-71f6-4f9f-9c70-5a56bbad7c5b)" r="32" cy="353.37" cx="154"/>
  <circle id="svg_28" fill="#bd081c" r="28" cy="353.37" cx="154"/>
  <path id="svg_29" fill="url(#99ef0e19-a61d-4b08-8dcf-bd6568c02f1e)" d="m169,349.81c-0.74,4.48 -1.16,10.55 -10.38,13c0,0 -5.39,1.65 -7.31,-2.22c-0.91,4.32 -1.84,8.31 -2.47,9.34a52.37,52.37 0 0 1 -3.95,6s0.44,-7.58 0.46,-9.26c0,-2.6 1.92,-14.36 1.92,-14.36s-2.6,-8.12 3,-9.36c0,0 4.57,-1.28 3.56,4.89c0,0 -0.76,4.06 -1.74,8.72l0.44,0.57a4.72,4.72 0 0 0 3.46,2.38c2.27,0.16 8.06,-4.11 7.93,-11.25s-1.72,-9.08 -8,-10.59s-11.43,1.73 -13.14,7.26c-1.92,6.29 -0.1,7.73 1.22,9.19l-0.66,4.23s-6.12,-1.76 -6.22,-8.14s3.11,-16.09 16.11,-16.63s16.49,11.67 15.77,16.23z"/>
  <path id="svg_30" fill="#fff" d="m170.56,347.23c-0.74,4.48 -1.16,10.55 -10.38,13c0,0 -5.39,1.65 -7.31,-2.22c-0.91,4.32 -1.84,8.31 -2.47,9.34a52.37,52.37 0 0 1 -3.95,6s0.44,-7.58 0.46,-9.26c0,-2.6 1.92,-14.36 1.92,-14.36s-2.6,-8.12 3,-9.36c0,0 4.57,-1.28 3.56,4.89c0,0 -0.76,4.06 -1.74,8.72l0.44,0.57a4.72,4.72 0 0 0 3.46,2.38c2.27,0.16 8.06,-4.11 7.93,-11.25s-1.72,-9.08 -8,-10.59s-11.43,1.73 -13.14,7.26c-1.92,6.29 -0.1,7.73 1.22,9.19l-0.66,4.23s-6.12,-1.76 -6.22,-8.14s3.11,-16.09 16.11,-16.63s16.5,11.66 15.77,16.23z"/>
  <circle id="svg_31" fill="url(#12a5d3f8-5393-40ab-8b3e-aa3812c07f5a)" r="32" cy="351.37" cx="448"/>
  <circle id="svg_32" fill="#d34836" r="28" cy="351.37" cx="448"/>
  <path id="svg_33" fill="url(#5cbae585-c536-47b3-aa98-54e5047313c1)" d="m470.78,353.21l-6,0l0,6a1.41,1.41 0 0 1 -1.38,1.38l-0.92,0a1.41,1.41 0 0 1 -1.38,-1.38l0,-6l-6,0a1.41,1.41 0 0 1 -1.38,-1.38l0,-0.92a1.41,1.41 0 0 1 1.38,-1.38l6,0l0,-6a1.41,1.41 0 0 1 1.38,-1.38l0.92,0a1.41,1.41 0 0 1 1.38,1.38l0,6l6,0a1.41,1.41 0 0 1 1.38,1.38l0,0.92a1.41,1.41 0 0 1 -1.38,1.38zm-20.78,-16.19a9.2,9.2 0 0 1 1.93,5.61a9.72,9.72 0 0 1 -6.26,8.83c0.28,0.92 1.2,1.93 3.5,3.59c4.42,3.22 4.6,9.2 4.6,9.2l0,0l0,0.46c0,4.78 -5.8,8.74 -12.88,8.74s-12.89,-3.95 -12.89,-8.74c0,-4.6 5.24,-8.37 12,-8.74l0,-3.77c-5.15,-0.64 -9.2,-4.69 -9.2,-9.57c0,-5.34 4.69,-9.66 10.58,-9.66l0.46,0s10.58,-0.83 12,-0.92s0.92,1.84 0.92,1.84l-4.76,3.13zm-10.79,24.1c0,3 3.13,5.52 6.9,5.52s6.9,-2.48 6.9,-5.52s-3.13,-5.52 -6.9,-5.52s-11.67,5.62 -11.67,8.65l4.77,-3.13zm11.22,-22.54c-0.74,-3.5 -3.31,-6 -5.7,-5.52s-3.68,3.77 -2.94,7.27s3.31,6 5.7,5.52s-1.09,-0.55 -1.83,-4.14l4.77,-3.13z"/>
  <path id="svg_34" fill="#fff" d="m472.62,350.5l-6,0l0,6a1.41,1.41 0 0 1 -1.38,1.38l-0.92,0a1.41,1.41 0 0 1 -1.38,-1.38l0,-6l-6,0a1.41,1.41 0 0 1 -1.38,-1.38l0,-0.92a1.41,1.41 0 0 1 1.38,-1.38l6,0l0,-6a1.41,1.41 0 0 1 1.38,-1.38l0.92,0a1.41,1.41 0 0 1 1.38,1.38l0,6l6,0a1.41,1.41 0 0 1 1.38,1.38l0,0.92a1.41,1.41 0 0 1 -1.38,1.38zm-20.79,-16.19a9.2,9.2 0 0 1 1.93,5.61a9.72,9.72 0 0 1 -6.26,8.83c0.28,0.92 1.2,1.93 3.5,3.59c4.42,3.22 4.6,9.2 4.6,9.2l0,0l0,0.46c0,4.78 -5.8,8.74 -12.88,8.74s-12.88,-4 -12.88,-8.74c0,-4.6 5.24,-8.37 12,-8.74l0,-3.77c-5.15,-0.64 -9.2,-4.69 -9.2,-9.57c0,-5.34 4.69,-9.66 10.58,-9.66l0.46,0s10.58,-0.83 12,-0.92s0.92,1.84 0.92,1.84l-4.77,3.13zm-20.32,30.32c0,3 3.13,5.52 6.9,5.52s6.9,-2.48 6.9,-5.52s-3.13,-5.52 -6.9,-5.52s-2.13,-0.61 -2.13,2.39l-4.77,3.13zm31.54,-52.86c-0.74,-3.5 -3.31,-6 -5.7,-5.52s-3.68,3.77 -2.94,7.27s3.31,6 5.7,5.52s-11.87,23.46 -12.61,19.91l15.55,-27.18z"/>
  <circle id="svg_35" fill="url(#46765641-5247-48a6-b74b-53d6b54dbb16)" r="32" cy="677.37" cx="32"/>
  <circle id="svg_36" fill="#00aced" r="28" cy="677.37" cx="32"/>
  <path id="svg_37" fill="url(#794c57a5-8e00-4894-82bf-1880783379ee)" d="m50.08,670.22l4.23,-0.85s-3.55,4 -4.23,4.23l0,0a17,17 0 0 0 0,2.54c-8.08,34.86 -38.08,19.46 -38.08,19.46c10.92,0.25 11.85,-4.23 11.85,-4.23c-6.35,-0.93 -7.62,-5.08 -7.62,-5.08a2.61,2.61 0 0 0 3.38,-0.85c-6.85,-1.78 -5.92,-8.46 -5.92,-8.46a8.8,8.8 0 0 0 4.15,1.61c-0.76,-0.93 -7.19,-8.63 -3.3,-12.61c0,0 4.74,8.46 17.18,9.22l0.85,-0.17a6.64,6.64 0 0 1 -0.17,-1.86a8.88,8.88 0 0 1 8.88,-8.88c5.92,0 7.19,3.38 7.19,3.38l4.23,-2.54c-0.08,0.01 -0.51,4.24 -2.62,5.09z"/>
  <path id="svg_38" fill="#fff" d="m51.77,667.68l4.23,-0.85s-3.55,4 -4.23,4.23l0,0a17,17 0 0 0 0,2.54c-8.12,34.86 -38.08,19.46 -38.08,19.46c10.92,0.25 11.85,-4.23 11.85,-4.23c-6.35,-0.93 -7.62,-5.08 -7.62,-5.08a2.61,2.61 0 0 0 3.38,-0.85c-6.85,-1.78 -5.92,-8.46 -5.92,-8.46a8.8,8.8 0 0 0 4.15,1.61c-0.76,-0.93 -7.19,-8.63 -3.3,-12.61c0,0 4.74,8.46 17.18,9.22l0.85,-0.17a6.64,6.64 0 0 1 -0.17,-1.86a8.88,8.88 0 0 1 8.88,-8.88c5.92,0 7.19,3.38 7.19,3.38l4.23,-2.54c-0.08,0.01 -0.51,4.24 -2.62,5.09z"/>
  <circle id="svg_39" fill="url(#d73e8d8b-f5de-4a7b-bc91-c12c41a143e7)" r="32" cy="570.37" cx="534"/>
  <circle id="svg_40" fill="#bd081c" r="28" cy="570.37" cx="534"/>
  <path id="svg_41" fill="url(#a287f7cf-b981-4b46-a7a5-e3fe6ce30998)" d="m549,566.81c-0.74,4.48 -1.16,10.55 -10.38,13c0,0 -5.39,1.65 -7.31,-2.22c-0.91,4.32 -1.84,8.31 -2.47,9.34a52.37,52.37 0 0 1 -3.95,6s0.44,-7.58 0.46,-9.26c0,-2.6 1.92,-14.36 1.92,-14.36s-2.6,-8.12 3,-9.36c0,0 4.57,-1.28 3.56,4.89c0,0 -0.76,4.06 -1.74,8.72l0.44,0.57a4.72,4.72 0 0 0 3.46,2.38c2.27,0.16 8.06,-4.11 7.93,-11.25s-1.72,-9.08 -8,-10.59s-11.43,1.73 -13.14,7.26c-1.92,6.29 -0.1,7.73 1.22,9.19l-0.66,4.23s-6.12,-1.76 -6.22,-8.14s3.11,-16.09 16.11,-16.63s16.49,11.67 15.77,16.23z"/>
  <path id="svg_42" fill="#fff" d="m550.56,564.23c-0.74,4.48 -1.16,10.55 -10.38,13c0,0 -5.39,1.65 -7.31,-2.22c-0.91,4.32 -1.84,8.31 -2.47,9.34a52.37,52.37 0 0 1 -3.95,6s0.44,-7.58 0.46,-9.26c0,-2.6 1.92,-14.36 1.92,-14.36s-2.6,-8.12 3,-9.36c0,0 4.57,-1.28 3.56,4.89c0,0 -0.76,4.06 -1.74,8.72l0.44,0.57a4.72,4.72 0 0 0 3.46,2.38c2.27,0.16 8.06,-4.11 7.93,-11.25s-1.72,-9.08 -8,-10.59s-11.43,1.73 -13.14,7.26c-1.92,6.29 -0.1,7.73 1.22,9.19l-0.66,4.23s-6.12,-1.76 -6.22,-8.14s3.11,-16.09 16.11,-16.63s16.5,11.66 15.77,16.23z"/>
  <circle id="svg_43" fill="url(#e65766e7-ab8c-4f5b-bfd3-b9a7c5095d11)" r="32" cy="454.37" cx="113"/>
  <circle id="svg_44" fill="#3b5998" r="28" cy="454.37" cx="113"/>
  <path id="svg_45" fill="url(#e76b2440-b096-46f5-bb61-246e4e471e19)" d="m115,442.8l0.06,4.34l7,-0.1l-0.76,7.83l-6.08,0.09l0.31,21.72l-9.56,0.14l-0.31,-21.72l-4.34,0.06l-0.11,-7.82l4.34,-0.06l-0.06,-4.34s-0.9,-8.24 6.81,-9.66l9.56,-0.14l0.1,7l-4.34,0.06a2.56,2.56 0 0 0 -2.62,2.6z"/>
  <path id="svg_46" fill="#fff" d="m117.86,441.58l0.06,4.34l7,-0.1l-0.76,7.83l-6.08,0.09l0.31,21.72l-9.56,0.14l-0.31,-21.72l-4.34,0.06l-0.11,-7.82l4.34,-0.06l-0.06,-4.34s-0.9,-8.24 6.81,-9.66l9.56,-0.14l0.1,7l-4.34,0.06a2.56,2.56 0 0 0 -2.62,2.6z"/>
  <circle id="svg_47" fill="url(#668125a2-a642-4673-9f02-0f1ac728a50a)" r="32" cy="569.37" cx="64"/>
  <circle id="svg_48" fill="#d34836" r="28" cy="569.37" cx="64"/>
  <path id="svg_49" fill="url(#7fadd4d4-04c6-494c-a840-c0524248c3dc)" d="m86.78,571.21l-6,0l0,6a1.41,1.41 0 0 1 -1.38,1.38l-0.92,0a1.41,1.41 0 0 1 -1.38,-1.38l0,-6l-6,0a1.41,1.41 0 0 1 -1.38,-1.38l0,-0.92a1.41,1.41 0 0 1 1.38,-1.38l6,0l0,-6a1.41,1.41 0 0 1 1.38,-1.38l0.92,0a1.41,1.41 0 0 1 1.38,1.38l0,6l6,0a1.41,1.41 0 0 1 1.38,1.38l0,0.92a1.41,1.41 0 0 1 -1.38,1.38zm-20.78,-16.19a9.2,9.2 0 0 1 1.93,5.61a9.72,9.72 0 0 1 -6.26,8.83c0.28,0.92 1.2,1.93 3.5,3.59c4.42,3.22 4.6,9.2 4.6,9.2l0,0l0,0.46c0,4.78 -5.8,8.74 -12.88,8.74s-12.89,-3.95 -12.89,-8.74c0,-4.6 5.24,-8.37 12,-8.74l0,-3.77c-5.15,-0.64 -9.2,-4.69 -9.2,-9.57c0,-5.34 4.69,-9.66 10.58,-9.66l0.46,0s10.58,-0.83 12,-0.92s0.92,1.84 0.92,1.84l-4.76,3.13zm-10.79,24.1c0,3 3.13,5.52 6.9,5.52s6.9,-2.48 6.9,-5.52s-3.13,-5.52 -6.9,-5.52s-11.67,5.62 -11.67,8.65l4.77,-3.13zm11.22,-22.54c-0.74,-3.5 -3.31,-6 -5.7,-5.52s-3.68,3.77 -2.94,7.27s3.31,6 5.7,5.52s-1.09,-0.55 -1.83,-4.14l4.77,-3.13z"/>
  <path id="svg_50" fill="#fff" d="m88.62,568.5l-6,0l0,6a1.41,1.41 0 0 1 -1.38,1.38l-0.92,0a1.41,1.41 0 0 1 -1.38,-1.38l0,-6l-6,0a1.41,1.41 0 0 1 -1.38,-1.38l0,-0.92a1.41,1.41 0 0 1 1.38,-1.38l6,0l0,-6a1.41,1.41 0 0 1 1.38,-1.38l0.92,0a1.41,1.41 0 0 1 1.38,1.38l0,6l6,0a1.41,1.41 0 0 1 1.38,1.38l0,0.92a1.41,1.41 0 0 1 -1.38,1.38zm-20.79,-16.19a9.2,9.2 0 0 1 1.93,5.61a9.72,9.72 0 0 1 -6.26,8.83c0.28,0.92 1.2,1.93 3.5,3.59c4.42,3.22 4.6,9.2 4.6,9.2l0,0l0,0.46c0,4.78 -5.8,8.74 -12.88,8.74s-12.88,-4 -12.88,-8.74c0,-4.6 5.24,-8.37 12,-8.74l0,-3.77c-5.15,-0.64 -9.2,-4.69 -9.2,-9.57c0,-5.34 4.69,-9.66 10.58,-9.66l0.46,0s10.58,-0.83 12,-0.92s0.92,1.84 0.92,1.84l-4.77,3.13zm-20.32,30.32c0,3 3.13,5.52 6.9,5.52s6.9,-2.48 6.9,-5.52s-3.13,-5.52 -6.9,-5.52s-2.13,-0.61 -2.13,2.39l-4.77,3.13zm31.54,-52.86c-0.74,-3.5 -3.31,-6 -5.7,-5.52s-3.68,3.77 -2.94,7.27s3.31,6 5.7,5.52s-11.87,23.46 -12.61,19.91l15.55,-27.18z"/>
  <circle id="svg_51" fill="url(#74b358ee-2808-4d3e-a206-0b82a517d11a)" r="32" cy="677.37" cx="566"/>
  <circle id="svg_52" fill="#0077b5" r="28" cy="677.37" cx="566"/>
  <path id="svg_53" fill="url(#823f05c8-15fb-4319-95da-2867774c7f73)" d="m577.63,696.63l0.24,-14.83s-0.78,-3.12 -3.73,-3s-3.94,0.54 -5.33,2.11l-0.26,15.59l-7.57,-0.12l0.39,-23.45l7.57,0.12l-0.06,3.48s2.58,-4.8 7.64,-4.34c4.69,0.38 8.12,3.31 8.77,9.45l0.15,0l-0.25,15.13l-7.56,-0.14zm-17.73,-26.76a4.54,4.54 0 1 1 4.61,-4.46a4.55,4.55 0 0 1 -12.17,4.32l7.56,0.14zm3.35,26.54l-7.57,-0.12l0.39,-23.45l7.57,0.12l-0.39,23.45z"/>
  <path id="svg_54" fill="#fff" d="m578.49,694.04l0.24,-14.83s-0.78,-3.12 -3.73,-3s-3.94,0.54 -5.33,2.11l-0.26,15.59l-7.57,-0.12l0.39,-23.45l7.57,0.12l-0.06,3.48s2.58,-4.8 7.64,-4.34c4.69,0.38 8.12,3.31 8.77,9.45l0.15,0l-0.25,15.13l-7.56,-0.14zm-17.73,-26.76a4.54,4.54 0 1 1 4.61,-4.46a4.55,4.55 0 0 1 -12.17,4.32l7.56,0.14zm3.35,26.54l-7.57,-0.12l0.39,-23.45l7.57,0.12l-0.39,23.45z"/>
 </g>
</svg>